# xmcd
#
# Track frame offsets:
#	150
#	14704
#	31722
#	46849
#	63832
#	80256
#	99983
#	117917
#	134143
#	153191
#
# Disc length: 2200 seconds
#
# Revision: 1
# Processed by: cddbd v1.5.2PL0 Copyright (c) Steve Scherf et al.
# Submitted via: EZCDAudioConverter 8.5.0.1
#
DISCID=7508960a
DTITLE=张学友 - 在你身边
DYEAR=2007
DGENRE=World Pop
TTITLE0=听天由命
TTITLE1=原罪犯
TTITLE2=在你身边
TTITLE3=有一个地方
TTITLE4=难道真的不能用爱解决？
TTITLE5=好久不见
TTITLE6=Don’t Wanna Be
TTITLE7=上不完的课
TTITLE8=烦恼歌
TTITLE9=但愿人长久（电影「但愿人长久」主题曲）
EXTD=
EXTT0=
EXTT1=
EXTT2=
EXTT3=
EXTT4=
EXTT5=
EXTT6=
EXTT7=
EXTT8=
EXTT9=
PLAYORDER=
